<svg xmlns="http://www.w3.org/2000/svg" viewBox="0 0 1600 900" role="img" aria-labelledby="t d">
  <title id="t">Utuseb mobile commerce and drinks operations</title>
  <desc id="d">Copper and charcoal case-study cover showing a mobile storefront with distinct drink products.</desc>
  <defs>
    <linearGradient id="b" x1="0" y1="0" x2="1" y2="1"><stop stop-color="#15110e"/><stop offset=".55" stop-color="#332014"/><stop offset="1" stop-color="#6e3b18"/></linearGradient>
    <radialGradient id="g"><stop stop-color="#ef9b45" stop-opacity=".72"/><stop offset="1" stop-color="#ef9b45" stop-opacity="0"/></radialGradient>
    <filter id="s"><feDropShadow dx="0" dy="28" stdDeviation="30" flood-opacity=".38"/></filter>
  </defs>
  <rect width="1600" height="900" fill="url(#b)"/><circle cx="1340" cy="50" r="460" fill="url(#g)"/><circle cx="120" cy="880" r="330" fill="url(#g)" opacity=".35"/>
  <g transform="translate(100 118)">
    <rect width="62" height="62" rx="18" fill="#e3923b"/><path d="M20 17h22m-19 7 5 23h7l5-23M27 34h9" fill="none" stroke="#18120c" stroke-width="4" stroke-linecap="round"/>
    <text x="82" y="30" fill="#fff8ef" font-family="Arial,sans-serif" font-size="34" font-weight="800" letter-spacing="7">UTUSEB</text>
    <text x="84" y="56" fill="#c8bcb0" font-family="Arial,sans-serif" font-size="13" font-weight="700" letter-spacing="4">BAR &amp; DELIVERY</text>
    <text y="175" fill="#eba55f" font-family="Arial,sans-serif" font-size="15" font-weight="800" letter-spacing="4">DELIVERY + PICKUP · PWA · OPERATIONS</text>
    <text y="270" fill="#fffaf2" font-family="Georgia,serif" font-size="92" font-weight="600">Real stock.</text>
    <text y="360" fill="#efa052" font-family="Georgia,serif" font-size="92" font-style="italic">Ready to move.</text>
    <text y="425" fill="#cabdb0" font-family="Arial,sans-serif" font-size="24">Ordering, fulfilment and inventory for</text>
    <text y="462" fill="#cabdb0" font-family="Arial,sans-serif" font-size="24">a private Namibian drinks business.</text>
    <g transform="translate(0 540)"><rect width="192" height="58" rx="18" fill="#e3923b"/><text x="96" y="37" text-anchor="middle" fill="#18120c" font-family="Arial" font-size="15" font-weight="800">LIVE PRODUCT ↗</text><text x="220" y="36" fill="#fff4e6" font-family="Arial" font-size="18" font-weight="700">utuseb.pages.dev</text></g>
  </g>
  <g transform="translate(930 82) rotate(3 260 360)" filter="url(#s)">
    <rect width="510" height="735" rx="45" fill="#fbf5ec"/><rect x="18" y="18" width="474" height="699" rx="31" fill="#f5ede2"/>
    <rect x="18" y="18" width="474" height="155" rx="31" fill="#20150f"/><rect x="18" y="130" width="474" height="43" fill="#20150f"/>
    <text x="48" y="62" fill="#fff" font-family="Arial" font-size="17" font-weight="800" letter-spacing="3">UTUSEB</text><circle cx="454" cy="53" r="19" fill="#e3923b"/><text x="454" y="59" text-anchor="middle" font-family="Arial" font-size="14" font-weight="800">3</text>
    <text x="48" y="111" fill="#fff9ef" font-family="Georgia" font-size="38" font-weight="600">Good drinks,</text><text x="48" y="149" fill="#ec9a4b" font-family="Georgia" font-size="38" font-style="italic">delivered.</text>
    <text x="43" y="220" fill="#9a632a" font-family="Arial" font-size="12" font-weight="800" letter-spacing="2">POPULAR NOW</text>
    <g transform="translate(40 245)">
      <g><rect width="132" height="205" rx="18" fill="#fff" stroke="#ded3c5"/><rect x="20" y="15" width="92" height="102" rx="14" fill="#eee2d2"/><rect x="50" y="29" width="33" height="78" rx="9" fill="#bd772f"/><rect x="54" y="52" width="25" height="25" rx="4" fill="#ead4a9"/><text x="15" y="145" fill="#231a13" font-family="Arial" font-size="14" font-weight="800">Tafel Lager</text><text x="15" y="167" fill="#8b8075" font-family="Arial" font-size="10">6 × 330ml</text><text x="15" y="193" fill="#231a13" font-family="Arial" font-size="15" font-weight="800">N$ 120</text></g>
      <g transform="translate(148)"><rect width="132" height="205" rx="18" fill="#fff" stroke="#ded3c5"/><rect x="20" y="15" width="92" height="102" rx="14" fill="#eee2d2"/><path d="M55 31h23l5 73H50z" fill="#547a42"/><rect x="53" y="58" width="27" height="28" rx="4" fill="#f4e9cf"/><text x="15" y="145" fill="#231a13" font-family="Arial" font-size="14" font-weight="800">Savanna Dry</text><text x="15" y="167" fill="#8b8075" font-family="Arial" font-size="10">6 × 330ml</text><text x="15" y="193" fill="#231a13" font-family="Arial" font-size="15" font-weight="800">N$ 132</text></g>
      <g transform="translate(296)"><rect width="132" height="205" rx="18" fill="#fff" stroke="#ded3c5"/><rect x="20" y="15" width="92" height="102" rx="14" fill="#eee2d2"/><path d="M57 25h20v18l10 65H47l10-65z" fill="#191713"/><rect x="51" y="60" width="32" height="30" rx="4" fill="#e4c77c"/><text x="15" y="145" fill="#231a13" font-family="Arial" font-size="14" font-weight="800">J. Walker</text><text x="15" y="167" fill="#8b8075" font-family="Arial" font-size="10">750ml</text><text x="15" y="193" fill="#231a13" font-family="Arial" font-size="15" font-weight="800">N$ 465</text></g>
    </g>
    <g transform="translate(40 480)"><rect width="428" height="88" rx="20" fill="#1d1712"/><text x="24" y="35" fill="#eaa052" font-family="Arial" font-size="11" font-weight="800" letter-spacing="2">CASH + EWALLET</text><text x="24" y="63" fill="#fff" font-family="Arial" font-size="18" font-weight="700">Order from any phone.</text><circle cx="382" cy="44" r="25" fill="#e3923b"/><path d="m372 44 7 7 14-17" fill="none" stroke="#17110c" stroke-width="4"/></g>
    <g transform="translate(40 592)"><rect width="428" height="68" rx="18" fill="#e3923b"/><text x="24" y="27" fill="#27180e" font-family="Arial" font-size="11" font-weight="800">CART · 3 ITEMS</text><text x="24" y="50" fill="#17110c" font-family="Arial" font-size="17" font-weight="800">N$ 717</text><text x="398" y="42" text-anchor="end" fill="#17110c" font-family="Arial" font-size="15" font-weight="800">CHECKOUT →</text></g>
  </g>
</svg>
